<?xml version="1.0" encoding="UTF-8"?> <svg xmlns="http://www.w3.org/2000/svg" width="320.9" height="248.123" viewBox="0 0 320.9 248.123"><g id="Group_1410" data-name="Group 1410" transform="translate(-701.243 -27.066)"><path id="Path_7236" data-name="Path 7236" d="M490.508,250.723a202.492,202.492,0,0,1,33.074.64c38.362,3.864,76.935,10.4,102.108,35.793,31.859,32.133,41.469,87.725,37.4,136.142Z" transform="translate(210.736 -223.239)" fill="#897cf4"></path><path id="Path_7235" data-name="Path 7235" d="M747.348,265.8l-21.079.452c-5.068.107-17.112,1.048-22.315,2.128C681.9,272.1,656.929,281.435,637.5,299.773c-23.421,22.11-120.354,126.8-142.028,132.337-1.059,1.231,7.836,1.844,7.836,1.844l51.223-1.016a142.806,142.806,0,0,0,20.068-1.962c22.046-3.719,40.8-12.893,60.242-31.24,23.427-22.11,94.11-95.555,94.11-95.555a121.918,121.918,0,0,1,59.156-37.056c2.838-.763,1.774-2.08,1.774-2.08Z" transform="translate(232.067 -158.764)" fill="#39398e"></path></g></svg> 